<?xml version="1.0" encoding="UTF-8"?>
<svg id="Layer_1" xmlns="http://www.w3.org/2000/svg" version="1.1" viewBox="250 4480 9800 1750">
  <!-- Generator: Adobe Illustrator 30.4.0, SVG Export Plug-In . SVG Version: 2.1.3 Build 103)  -->
  <defs>
    <style>
      .st0 {
        fill: #fff;
      }

      .st1 {
        fill: #058054;
      }
    </style>
  </defs>
  <path class="st0" d="M1779.72,6135.26l-1068.4,1.8c-201.52.34-376.82-133.24-386.77-342.97l-1.99-351.47-1.33-660.95c-.47-232.44,177.81-380.99,403.34-379.99l1013.48,4.49c223.12-21.3,406.38,141.93,407.99,366.23l-.4,998.3c-.08,202.77-159.78,364.2-365.93,364.54ZM1782.91,5964.21c109.85.11,194.56-87.88,194.44-193.96l-1.05-1012.54c-.11-109.36-94.27-185.52-197.76-185.51l-1094.88.11c-109.03.01-193.64,92.14-193.54,199.11l.48,503.63-1.59,481.22c-.32,96.17,70.91,206.7,178.52,206.81l1115.38,1.13Z"/>
  <path class="st1" d="M7186.71,5498.48l-11.55-167.35c-12.92-187.11,46.75-398.46,233.4-463.82,113.97-27.86,231.29-23.34,348.82,3.87l20.33-2.94c5.26-.76,2.1-17.14-1.27-22.43-6.99-10.97,1.75-26.72,1.81-35.92l2.38-326.45,252.33,2.9.6,1327.22-248.57.22-7.69-54.99c-157.67,109.6-417.16,109.3-509.43-31.81-44.78-68.48-75.37-144.57-81.16-228.52ZM7578.37,5612.22c72.88,5.85,140.44-11.86,200.74-42.6l1.27-467.92c-132.16-59.07-306.42-56.58-335.74,85.3-21.33,103.26-20.49,213.4,3.96,315.78,15.26,63.94,60.67,103.9,129.77,109.44Z"/>
  <polygon class="st0" points="3273.19 5283.17 2822.12 5283.74 2821.31 5587.16 3393.34 5587.52 3391.98 5813.71 2562 5813.22 2560.91 5203.07 2559.61 4536.09 3393.05 4538.01 3393.75 4766.36 2821.19 4766.49 2821.8 5059.84 3273.07 5059.87 3273.19 5283.17"/>
  <path class="st0" d="M5995,5589.3l.91,187.12c-211.45,66.48-544.65,113.35-689.64-55.66-50.79-59.21-82.36-131.49-95.23-209.06-39.3-236.96-6.77-542.04,232.07-632.27,101.11-38.2,208.26-39.55,312.93-16.94,262.65,70.09,300.71,320.68,251.68,574.73l-552.98.13c-1.47,96.23,64.81,171.05,164.88,178.57,125.08,8.3,245.53-4.94,375.38-26.61ZM5784.63,5243.61l-12.29-92.41c-9.18-69.04-73.92-102.69-140.63-102.01-61.18.63-120.82,17.95-151.22,75.35-19.02,35.92-26.06,80.55-30,119.41l334.15-.35Z"/>
  <path class="st1" d="M8982.72,5590.3l6.23,187.38c-88.1,31.58-171.47,49.43-263.06,52.77l-161.19,5.88c-103.21,3.77-210.41-42.51-276.18-122.27-47.62-57.74-75.6-128.76-87.78-200.85-33.69-199.33-20.14-463.62,134.42-583.02,112.11-86.61,309.18-99.57,439.86-58.59,236.7,74.22,269.7,333.98,222.2,566.23l-564.75,3.25c11.16,99.66,46.87,153.42,148.33,172.53,135.03,7.44,256.32,4.93,401.92-23.32ZM8766.6,5252.12c.73-59.66.33-123.7-45.78-166.47-59.66-55.33-172.37-54.8-234.78-3.53-50.94,41.85-57.83,107.47-57.55,169.51l338.11.49Z"/>
  <path class="st0" d="M4110.67,5145.69c-17.3-92-190.52-104.51-289.34-23.99l.04,692.55-257.95-2.32.18-936.62,243.15-.41,4.49,49.06c182.4-117.7,457.45-110.8,537.82,99.23,18.05,47.16,31.34,99.83,32.07,151.44l5.01,356.28-1.99,282.79-254.38-.43,2.29-553.88-21.39-113.72Z"/>
  <path class="st1" d="M9755.15,4876.57l233.99-1.79-115.65,421.62-137.5,518.37-385.97.41-74.15-252.11-78.56-288.72-113.06-398.55,262.93,2.48,94.12,376.93,85.04,321.33c1.13,4.27,3.53,15.05,6.81,15.27l24.57,1.63,164.01-687.31c4.27-15.05,19.81-29.44,33.41-29.55Z"/>
  <path class="st0" d="M5096.7,5599.55l7.66,200.1c-97.81,39.13-210.71,49.97-316.54,24.55-137.49-33.03-174.8-170.26-174.94-309.14l-.43-424.69-115.67-3.66-1.06-211.17,116.52-2.51-1.92-261.88,256.3.37.59,262.46,233.28,1.3.3,213.04-234.04-.06.92,436.23c.1,47.02,31.07,88.83,77.1,85.63l151.93-10.56Z"/>
  <path class="st0" d="M6445.1,5811.95l-253.67,2.02.25-938.95,247.09.11,2.13,93.7c91.09-70.44,187.35-108.02,304.12-124.25l-1.59,252.83c-109.18,10.46-205.66,35.05-298.96,91.55l.64,622.99Z"/>
  <polygon class="st1" points="7032.98 5819.11 6764.12 5817.54 6759.72 5529.14 7029.85 5530.9 7032.98 5819.11"/>
  <polygon class="st0" points="795.51 5639.73 699.15 5552.2 1003.23 5247.96 883.29 5123.2 705.11 4937.85 796.75 4846.99 963.33 5019.34 1131.58 5194.9 1183.77 5252.2 795.51 5639.73"/>
  <rect class="st0" x="1203.67" y="5550.33" width="516.95" height="117.26"/>
</svg>
